# xmcd
#
# Track frame offsets:
#	150
#	33690
#	56402
#	75205
#	103287
#	125242
#	148042
#	173812
#	195015
#
# Disc length: 3010 seconds
#
# Revision: 5
# Processed by: cddbd v1.5PL3 Copyright (c) Steve Scherf et al.
# Submitted via: CDex 1.50Beta5
#
DISCID=750bc009
DTITLE=今井美樹 - THANK YOU Disc 1
DYEAR=1996
DGENRE=New Age
TTITLE0=NOCTILUCA
TTITLE1=友だち
TTITLE2=BOOGIE-WOOGIE LONESOME HIGH-HEEL
TTITLE3=MISS YOU
TTITLE4=BLUE MOON BLUE
TTITLE5=AFTER ALL
TTITLE6=PIECE OF MY WISH
TTITLE7=春の日
TTITLE8=PRAY
EXTD=
EXTT0=
EXTT1=
EXTT2=
EXTT3=
EXTT4=
EXTT5=
EXTT6=
EXTT7=
EXTT8=
PLAYORDER=
